<?xml version="1.0" encoding="iso-8859-1"?>
<!-- Generator: Adobe Illustrator 19.0.0, SVG Export Plug-In . SVG Version: 6.00 Build 0)  -->
<svg xmlns="http://www.w3.org/2000/svg" xmlns:xlink="http://www.w3.org/1999/xlink" version="1.1" id="Capa_1" x="0px" y="0px" viewBox="0 0 512 512" style="enable-background:new 0 0 512 512;" xml:space="preserve" width="512px" height="512px">
<g>
	<g>
		<path d="M298.667,384h-85.333c-4.71,0-8.533,3.814-8.533,8.533v59.733c0,4.719,3.823,8.533,8.533,8.533h85.333    c4.719,0,8.533-3.814,8.533-8.533v-59.733C307.2,387.814,303.386,384,298.667,384z M290.133,443.733h-68.267v-42.667h68.267    V443.733z" fill="#a1a1a1"/>
	</g>
</g>
<g>
	<g>
		<rect x="247.467" y="392.533" width="17.067" height="59.733" fill="#a1a1a1"/>
	</g>
</g>
<g>
	<g>
		<path d="M341.333,51.2H170.667c-4.71,0-8.533,3.823-8.533,8.533v392.533c0,4.719,3.823,8.533,8.533,8.533h170.667    c4.719,0,8.533-3.814,8.533-8.533V59.733C349.867,55.023,346.052,51.2,341.333,51.2z M332.8,443.733H179.2V68.267h153.6V443.733z" fill="#a1a1a1"/>
	</g>
</g>
<g>
	<g>
		<path d="M170.667,85.333H102.4c-4.71,0-8.533,3.823-8.533,8.533v358.4c0,4.719,3.823,8.533,8.533,8.533h68.267    c4.71,0,8.533-3.814,8.533-8.533v-358.4C179.2,89.156,175.377,85.333,170.667,85.333z M162.133,443.733h-51.2V102.4h51.2V443.733z    " fill="#a1a1a1"/>
	</g>
</g>
<g>
	<g>
		<rect x="76.8" y="85.333" width="25.6" height="17.067" fill="#a1a1a1"/>
	</g>
</g>
<g>
	<g>
		<rect x="145.067" y="51.2" width="221.867" height="17.067" fill="#a1a1a1"/>
	</g>
</g>
<g>
	<g>
		<rect x="196.267" y="341.333" width="17.067" height="25.6" fill="#a1a1a1"/>
	</g>
</g>
<g>
	<g>
		<rect x="230.4" y="341.333" width="17.067" height="25.6" fill="#a1a1a1"/>
	</g>
</g>
<g>
	<g>
		<rect x="264.533" y="341.333" width="17.067" height="25.6" fill="#a1a1a1"/>
	</g>
</g>
<g>
	<g>
		<rect x="298.667" y="341.333" width="17.067" height="25.6" fill="#a1a1a1"/>
	</g>
</g>
<g>
	<g>
		<rect x="196.267" y="298.667" width="17.067" height="25.6" fill="#a1a1a1"/>
	</g>
</g>
<g>
	<g>
		<rect x="230.4" y="298.667" width="17.067" height="25.6" fill="#a1a1a1"/>
	</g>
</g>
<g>
	<g>
		<rect x="264.533" y="298.667" width="17.067" height="25.6" fill="#a1a1a1"/>
	</g>
</g>
<g>
	<g>
		<rect x="298.667" y="298.667" width="17.067" height="25.6" fill="#a1a1a1"/>
	</g>
</g>
<g>
	<g>
		<rect x="196.267" y="256" width="17.067" height="25.6" fill="#a1a1a1"/>
	</g>
</g>
<g>
	<g>
		<rect x="230.4" y="256" width="17.067" height="25.6" fill="#a1a1a1"/>
	</g>
</g>
<g>
	<g>
		<rect x="264.533" y="256" width="17.067" height="25.6" fill="#a1a1a1"/>
	</g>
</g>
<g>
	<g>
		<rect x="298.667" y="256" width="17.067" height="25.6" fill="#a1a1a1"/>
	</g>
</g>
<g>
	<g>
		<rect x="196.267" y="213.333" width="17.067" height="25.6" fill="#a1a1a1"/>
	</g>
</g>
<g>
	<g>
		<rect x="230.4" y="213.333" width="17.067" height="25.6" fill="#a1a1a1"/>
	</g>
</g>
<g>
	<g>
		<rect x="264.533" y="213.333" width="17.067" height="25.6" fill="#a1a1a1"/>
	</g>
</g>
<g>
	<g>
		<rect x="298.667" y="213.333" width="17.067" height="25.6" fill="#a1a1a1"/>
	</g>
</g>
<g>
	<g>
		<rect x="196.267" y="170.667" width="17.067" height="25.6" fill="#a1a1a1"/>
	</g>
</g>
<g>
	<g>
		<rect x="230.4" y="170.667" width="17.067" height="25.6" fill="#a1a1a1"/>
	</g>
</g>
<g>
	<g>
		<rect x="264.533" y="170.667" width="17.067" height="25.6" fill="#a1a1a1"/>
	</g>
</g>
<g>
	<g>
		<rect x="298.667" y="170.667" width="17.067" height="25.6" fill="#a1a1a1"/>
	</g>
</g>
<g>
	<g>
		<rect x="196.267" y="128" width="17.067" height="25.6" fill="#a1a1a1"/>
	</g>
</g>
<g>
	<g>
		<rect x="230.4" y="128" width="17.067" height="25.6" fill="#a1a1a1"/>
	</g>
</g>
<g>
	<g>
		<rect x="264.533" y="128" width="17.067" height="25.6" fill="#a1a1a1"/>
	</g>
</g>
<g>
	<g>
		<rect x="298.667" y="128" width="17.067" height="25.6" fill="#a1a1a1"/>
	</g>
</g>
<g>
	<g>
		<rect x="196.267" y="85.333" width="17.067" height="25.6" fill="#a1a1a1"/>
	</g>
</g>
<g>
	<g>
		<rect x="230.4" y="85.333" width="17.067" height="25.6" fill="#a1a1a1"/>
	</g>
</g>
<g>
	<g>
		<rect x="264.533" y="85.333" width="17.067" height="25.6" fill="#a1a1a1"/>
	</g>
</g>
<g>
	<g>
		<rect x="298.667" y="85.333" width="17.067" height="25.6" fill="#a1a1a1"/>
	</g>
</g>
<g>
	<g>
		<rect x="128" y="384" width="17.067" height="25.6" fill="#a1a1a1"/>
	</g>
</g>
<g>
	<g>
		<rect x="128" y="341.333" width="17.067" height="25.6" fill="#a1a1a1"/>
	</g>
</g>
<g>
	<g>
		<rect x="128" y="298.667" width="17.067" height="25.6" fill="#a1a1a1"/>
	</g>
</g>
<g>
	<g>
		<rect x="128" y="256" width="17.067" height="25.6" fill="#a1a1a1"/>
	</g>
</g>
<g>
	<g>
		<rect x="128" y="213.333" width="17.067" height="25.6" fill="#a1a1a1"/>
	</g>
</g>
<g>
	<g>
		<rect x="128" y="170.667" width="17.067" height="25.6" fill="#a1a1a1"/>
	</g>
</g>
<g>
	<g>
		<rect x="128" y="128" width="17.067" height="25.6" fill="#a1a1a1"/>
	</g>
</g>
<g>
	<g>
		<path d="M409.6,85.333h-68.267c-4.719,0-8.533,3.823-8.533,8.533v358.4c0,4.719,3.814,8.533,8.533,8.533H409.6    c4.719,0,8.533-3.814,8.533-8.533v-358.4C418.133,89.156,414.319,85.333,409.6,85.333z M401.067,443.733h-51.2V102.4h51.2V443.733    z" fill="#a1a1a1"/>
	</g>
</g>
<g>
	<g>
		<rect x="409.6" y="85.333" width="25.6" height="17.067" fill="#a1a1a1"/>
	</g>
</g>
<g>
	<g>
		<rect x="366.933" y="384" width="17.067" height="25.6" fill="#a1a1a1"/>
	</g>
</g>
<g>
	<g>
		<rect x="366.933" y="341.333" width="17.067" height="25.6" fill="#a1a1a1"/>
	</g>
</g>
<g>
	<g>
		<rect x="366.933" y="298.667" width="17.067" height="25.6" fill="#a1a1a1"/>
	</g>
</g>
<g>
	<g>
		<rect x="366.933" y="256" width="17.067" height="25.6" fill="#a1a1a1"/>
	</g>
</g>
<g>
	<g>
		<rect x="366.933" y="213.333" width="17.067" height="25.6" fill="#a1a1a1"/>
	</g>
</g>
<g>
	<g>
		<rect x="366.933" y="170.667" width="17.067" height="25.6" fill="#a1a1a1"/>
	</g>
</g>
<g>
	<g>
		<rect x="366.933" y="128" width="17.067" height="25.6" fill="#a1a1a1"/>
	</g>
</g>
<g>
	<g>
		<rect y="443.733" width="102.4" height="17.067" fill="#a1a1a1"/>
	</g>
</g>
<g>
	<g>
		<rect x="409.6" y="443.733" width="102.4" height="17.067" fill="#a1a1a1"/>
	</g>
</g>
<g>
	<g>
		<rect x="34.133" y="273.067" width="17.067" height="179.2" fill="#a1a1a1"/>
	</g>
</g>
<g>
	<g>
		<rect x="34.133" y="273.067" transform="matrix(0.6 -0.8 0.8 0.6 -235.52 160.4267)" width="17.067" height="85.333" fill="#a1a1a1"/>
	</g>
</g>
<g>
	<g>
		
			<rect x="-0.028" y="307.202" transform="matrix(0.7999 -0.6002 0.6002 0.7999 -180.9634 88.7805)" width="85.337" height="17.067" fill="#a1a1a1"/>
	</g>
</g>
<g>
	<g>
		<rect x="460.8" y="273.067" width="17.067" height="179.2" fill="#a1a1a1"/>
	</g>
</g>
<g>
	<g>
		<rect x="460.802" y="273.07" transform="matrix(0.6 -0.8 0.8 0.6 -64.8572 501.759)" width="17.058" height="85.333" fill="#a1a1a1"/>
	</g>
</g>
<g>
	<g>
		
			<rect x="426.641" y="307.241" transform="matrix(0.8001 -0.5998 0.5998 0.8001 -95.6072 344.6133)" width="85.33" height="17.057" fill="#a1a1a1"/>
	</g>
</g>
<g>
</g>
<g>
</g>
<g>
</g>
<g>
</g>
<g>
</g>
<g>
</g>
<g>
</g>
<g>
</g>
<g>
</g>
<g>
</g>
<g>
</g>
<g>
</g>
<g>
</g>
<g>
</g>
<g>
</g>
</svg>
