<?xml version="1.0" encoding="iso-8859-1"?>
<!-- Generator: Adobe Illustrator 19.0.0, SVG Export Plug-In . SVG Version: 6.00 Build 0)  -->
<svg xmlns="http://www.w3.org/2000/svg" xmlns:xlink="http://www.w3.org/1999/xlink" version="1.1" id="Capa_1" x="0px" y="0px" viewBox="0 0 512 512" style="enable-background:new 0 0 512 512;" xml:space="preserve" width="512px" height="512px">
<g>
	<g>
		<rect y="142.585" width="512" height="17.067" fill="#a1a1a1"/>
	</g>
</g>
<g>
	<g>
		<path d="M290.133,14.584c-28.237,0-51.2,22.963-51.2,51.2v230.4H256v-230.4c0-18.825,15.309-34.133,34.133-34.133    c18.825,0,34.133,15.309,34.133,34.133v92.331h17.067V65.785C341.333,37.548,318.37,14.584,290.133,14.584z" fill="#a1a1a1"/>
	</g>
</g>
<g>
	<g>
		<rect x="247.467" y="193.785" width="136.533" height="17.067" fill="#a1a1a1"/>
	</g>
</g>
<g>
	<g>
		<path d="M426.667,14.584c-28.237,0-51.2,22.963-51.2,51.2v230.4h17.067v-230.4c0-18.825,15.309-34.133,34.133-34.133    S460.8,46.96,460.8,65.785v92.331h17.067V65.785C477.867,37.548,454.904,14.584,426.667,14.584z" fill="#a1a1a1"/>
	</g>
</g>
<g>
	<g>
		<rect x="247.467" y="244.985" width="136.533" height="17.067" fill="#a1a1a1"/>
	</g>
</g>
<g>
	<g>
		<path d="M443.315,472.859c-13.167,10.001-31.539,9.992-44.689,0.008c-19.234-14.669-46.089-14.66-65.289-0.008    c-13.175,10.001-31.548,10.001-44.706,0.008c-19.226-14.66-46.08-14.669-65.289-0.008c-13.158,10.001-31.539,10.001-44.698,0.008    c-19.226-14.66-46.08-14.669-65.289-0.008c-13.158,10.001-31.548,10.001-44.706,0.008c-19.226-14.66-46.08-14.677-65.306,0    l10.351,13.568c13.133-10.001,31.479-10.01,44.621,0.009c19.251,14.618,46.131,14.626,65.382-0.009    c13.133-10.018,31.471-10.01,44.621,0.009c19.243,14.635,46.114,14.626,65.374-0.009c13.133-10.018,31.471-10.01,44.621,0.009    c19.234,14.618,46.106,14.626,65.374-0.009c13.133-10.018,31.462-10.018,44.621,0.009c9.626,7.313,21.146,10.965,32.683,10.965    c11.537,0,23.066-3.652,32.657-10.974c13.133-10.018,31.471-10.027,44.612,0l10.351-13.568    C489.378,458.198,462.532,458.207,443.315,472.859z" fill="#a1a1a1"/>
	</g>
</g>
<g>
	<g>
		<path d="M443.315,413.125c-13.167,10.001-31.539,9.992-44.689,0.008c-19.234-14.669-46.089-14.66-65.289-0.008    c-13.175,10.001-31.548,10.001-44.706,0.008c-19.226-14.669-46.08-14.66-65.289-0.008c-13.158,10.001-31.539,10.001-44.698,0.008    c-19.226-14.669-46.08-14.66-65.289-0.008c-13.158,10.001-31.548,10.001-44.706,0.008c-19.226-14.669-46.08-14.669-65.306,0    l10.351,13.568c13.133-10.001,31.479-10.01,44.621,0.009c19.251,14.618,46.131,14.626,65.382-0.009    c13.133-10.018,31.471-10.01,44.621,0.009c19.243,14.635,46.114,14.626,65.374-0.009c13.133-10.018,31.471-10.01,44.621,0.009    c19.234,14.618,46.106,14.626,65.374-0.009c13.133-10.018,31.462-10.018,44.621,0.009c9.626,7.313,21.146,10.965,32.683,10.965    c11.537,0,23.066-3.652,32.657-10.974c13.133-10.018,31.471-10.027,44.612,0l10.351-13.568    C489.378,398.465,462.532,398.474,443.315,413.125z" fill="#a1a1a1"/>
	</g>
</g>
<g>
	<g>
		<path d="M443.315,353.392c-13.167,10.001-31.539,9.992-44.689,0.008c-19.234-14.669-46.089-14.66-65.289-0.008    c-13.175,10.001-31.548,10.001-44.706,0.008c-19.226-14.669-46.08-14.66-65.289-0.008c-13.158,10.001-31.539,10.001-44.698,0.008    c-19.226-14.669-46.08-14.66-65.289-0.008c-13.158,10.001-31.548,10.001-44.706,0.008c-19.226-14.669-46.08-14.669-65.306,0    l10.351,13.568c13.133-10.001,31.479-10.01,44.621,0.008c19.251,14.626,46.131,14.618,65.382-0.008    c13.133-10.018,31.471-10.01,44.621,0.008c19.243,14.635,46.114,14.626,65.374-0.008c13.133-10.018,31.471-10.01,44.621,0.008    c19.234,14.618,46.106,14.626,65.374-0.008c13.133-10.018,31.462-10.018,44.621,0.008c9.626,7.313,21.146,10.965,32.683,10.965    c11.537,0,23.066-3.652,32.657-10.974c13.133-10.018,31.471-10.027,44.612,0l10.351-13.568    C489.378,338.732,462.532,338.74,443.315,353.392z" fill="#a1a1a1"/>
	</g>
</g>
<g>
	<g>
		<path d="M443.315,293.659c-13.167,10.001-31.539,9.992-44.689,0.008c-19.234-14.669-46.089-14.66-65.289-0.008    c-13.175,9.992-31.548,10.001-44.706,0.008c-19.226-14.66-46.08-14.669-65.289-0.008c-13.158,10.01-31.539,10.001-44.698,0.008    c-19.226-14.66-46.08-14.669-65.289-0.008c-13.158,10.01-31.548,10.001-44.706,0.008c-19.226-14.66-46.08-14.677-65.306,0    l10.351,13.568c13.133-10.001,31.479-10.01,44.621,0.008c19.251,14.618,46.131,14.626,65.382-0.008    c13.133-10.018,31.471-10.01,44.621,0.008c19.243,14.635,46.114,14.626,65.374-0.008c13.133-10.018,31.471-10.01,44.621,0.008    c19.234,14.618,46.106,14.626,65.374-0.008c13.133-10.018,31.462-10.018,44.621,0.008c9.626,7.313,21.146,10.965,32.683,10.965    c11.537,0,23.066-3.652,32.657-10.974c13.133-10.018,31.471-10.027,44.612,0l10.351-13.568    C489.378,278.998,462.532,279.007,443.315,293.659z" fill="#a1a1a1"/>
	</g>
</g>
<g>
</g>
<g>
</g>
<g>
</g>
<g>
</g>
<g>
</g>
<g>
</g>
<g>
</g>
<g>
</g>
<g>
</g>
<g>
</g>
<g>
</g>
<g>
</g>
<g>
</g>
<g>
</g>
<g>
</g>
</svg>
